<svg width="66" height="66" viewBox="0 0 66 66" fill="none" xmlns="http://www.w3.org/2000/svg">
<mask id="path-1-inside-1_116_72" fill="white">
<path d="M0 4C0 1.79086 1.79086 0 4 0H62C64.2091 0 66 1.79086 66 4V62C66 64.2091 64.2091 66 62 66H4C1.79086 66 0 64.2091 0 62V4Z"/>
</mask>
<path d="M0 4C0 1.79086 1.79086 0 4 0H62C64.2091 0 66 1.79086 66 4V62C66 64.2091 64.2091 66 62 66H4C1.79086 66 0 64.2091 0 62V4Z" fill="#1A1A1A"/>
<path d="M4 0V1H62V0V-1H4V0ZM66 4H65V62H66H67V4H66ZM62 66V65H4V66V67H62V66ZM0 62H1V4H0H-1V62H0ZM4 66V65C2.34315 65 1 63.6569 1 62H0H-1C-1 64.7614 1.23858 67 4 67V66ZM66 62H65C65 63.6569 63.6569 65 62 65V66V67C64.7614 67 67 64.7614 67 62H66ZM62 0V1C63.6569 1 65 2.34315 65 4H66H67C67 1.23858 64.7614 -1 62 -1V0ZM4 0V-1C1.23858 -1 -1 1.23858 -1 4H0H1C1 2.34315 2.34315 1 4 1V0Z" fill="white" fill-opacity="0.2" mask="url(#path-1-inside-1_116_72)"/>
<path d="M43.6663 34.3333C43.6663 40.9999 38.9997 44.3333 33.453 46.2666C33.1626 46.365 32.8471 46.3603 32.5597 46.2533C26.9997 44.3333 22.333 40.9999 22.333 34.3333V24.9999C22.333 24.6463 22.4735 24.3072 22.7235 24.0571C22.9736 23.8071 23.3127 23.6666 23.6663 23.6666C26.333 23.6666 29.6663 22.0666 31.9863 20.0399C32.2688 19.7986 32.6281 19.666 32.9997 19.666C33.3712 19.666 33.7305 19.7986 34.013 20.0399C36.3463 22.0799 39.6663 23.6666 42.333 23.6666C42.6866 23.6666 43.0258 23.8071 43.2758 24.0571C43.5259 24.3072 43.6663 24.6463 43.6663 24.9999V34.3333Z" stroke="#F4D436" stroke-width="2" stroke-linecap="round" stroke-linejoin="round"/>
</svg>
