<svg width="66" height="66" viewBox="0 0 66 66" fill="none" xmlns="http://www.w3.org/2000/svg">
<mask id="path-1-inside-1_116_93" fill="white">
<path d="M0 4C0 1.79086 1.79086 0 4 0H62C64.2091 0 66 1.79086 66 4V62C66 64.2091 64.2091 66 62 66H4C1.79086 66 0 64.2091 0 62V4Z"/>
</mask>
<path d="M0 4C0 1.79086 1.79086 0 4 0H62C64.2091 0 66 1.79086 66 4V62C66 64.2091 64.2091 66 62 66H4C1.79086 66 0 64.2091 0 62V4Z" fill="#1A1A1A"/>
<path d="M4 0V1H62V0V-1H4V0ZM66 4H65V62H66H67V4H66ZM62 66V65H4V66V67H62V66ZM0 62H1V4H0H-1V62H0ZM4 66V65C2.34315 65 1 63.6569 1 62H0H-1C-1 64.7614 1.23858 67 4 67V66ZM66 62H65C65 63.6569 63.6569 65 62 65V66V67C64.7614 67 67 64.7614 67 62H66ZM62 0V1C63.6569 1 65 2.34315 65 4H66H67C67 1.23858 64.7614 -1 62 -1V0ZM4 0V-1C1.23858 -1 -1 1.23858 -1 4H0H1C1 2.34315 2.34315 1 4 1V0Z" fill="white" fill-opacity="0.2" mask="url(#path-1-inside-1_116_93)"/>
<path d="M33 26.3333V44.9999" stroke="#D5001C" stroke-width="2" stroke-linecap="round" stroke-linejoin="round"/>
<path d="M21.0003 41C20.6467 41 20.3076 40.8595 20.0575 40.6095C19.8075 40.3594 19.667 40.0203 19.667 39.6667V22.3333C19.667 21.9797 19.8075 21.6406 20.0575 21.3905C20.3076 21.1405 20.6467 21 21.0003 21H27.667C29.0815 21 30.438 21.5619 31.4382 22.5621C32.4384 23.5623 33.0003 24.9188 33.0003 26.3333C33.0003 24.9188 33.5622 23.5623 34.5624 22.5621C35.5626 21.5619 36.9192 21 38.3337 21H45.0003C45.3539 21 45.6931 21.1405 45.9431 21.3905C46.1932 21.6406 46.3337 21.9797 46.3337 22.3333V39.6667C46.3337 40.0203 46.1932 40.3594 45.9431 40.6095C45.6931 40.8595 45.3539 41 45.0003 41H37.0003C35.9395 41 34.922 41.4214 34.1719 42.1716C33.4218 42.9217 33.0003 43.9391 33.0003 45C33.0003 43.9391 32.5789 42.9217 31.8288 42.1716C31.0786 41.4214 30.0612 41 29.0003 41H21.0003Z" stroke="#D5001C" stroke-width="2" stroke-linecap="round" stroke-linejoin="round"/>
</svg>
