<svg width="66" height="66" viewBox="0 0 66 66" fill="none" xmlns="http://www.w3.org/2000/svg">
<mask id="path-1-inside-1_116_81" fill="white">
<path d="M0 4C0 1.79086 1.79086 0 4 0H62C64.2091 0 66 1.79086 66 4V62C66 64.2091 64.2091 66 62 66H4C1.79086 66 0 64.2091 0 62V4Z"/>
</mask>
<path d="M0 4C0 1.79086 1.79086 0 4 0H62C64.2091 0 66 1.79086 66 4V62C66 64.2091 64.2091 66 62 66H4C1.79086 66 0 64.2091 0 62V4Z" fill="#1A1A1A"/>
<path d="M4 0V1H62V0V-1H4V0ZM66 4H65V62H66H67V4H66ZM62 66V65H4V66V67H62V66ZM0 62H1V4H0H-1V62H0ZM4 66V65C2.34315 65 1 63.6569 1 62H0H-1C-1 64.7614 1.23858 67 4 67V66ZM66 62H65C65 63.6569 63.6569 65 62 65V66V67C64.7614 67 67 64.7614 67 62H66ZM62 0V1C63.6569 1 65 2.34315 65 4H66H67C67 1.23858 64.7614 -1 62 -1V0ZM4 0V-1C1.23858 -1 -1 1.23858 -1 4H0H1C1 2.34315 2.34315 1 4 1V0Z" fill="white" fill-opacity="0.2" mask="url(#path-1-inside-1_116_81)"/>
<path d="M38.3337 45V42.3333C38.3337 40.9188 37.7718 39.5623 36.7716 38.5621C35.7714 37.5619 34.4148 37 33.0003 37H25.0003C23.5858 37 22.2293 37.5619 21.2291 38.5621C20.2289 39.5623 19.667 40.9188 19.667 42.3333V45" stroke="#D5001C" stroke-width="2" stroke-linecap="round" stroke-linejoin="round"/>
<path d="M29.0003 31.6667C31.9458 31.6667 34.3337 29.2789 34.3337 26.3333C34.3337 23.3878 31.9458 21 29.0003 21C26.0548 21 23.667 23.3878 23.667 26.3333C23.667 29.2789 26.0548 31.6667 29.0003 31.6667Z" stroke="#D5001C" stroke-width="2" stroke-linecap="round" stroke-linejoin="round"/>
<path d="M46.333 45V42.3333C46.3321 41.1516 45.9388 40.0037 45.2148 39.0698C44.4908 38.1358 43.4772 37.4688 42.333 37.1733" stroke="#D5001C" stroke-width="2" stroke-linecap="round" stroke-linejoin="round"/>
<path d="M38.333 21.1733C39.4802 21.4671 40.4971 22.1343 41.2232 23.0698C41.9493 24.0052 42.3435 25.1558 42.3435 26.34C42.3435 27.5242 41.9493 28.6748 41.2232 29.6103C40.4971 30.5457 39.4802 31.2129 38.333 31.5067" stroke="#D5001C" stroke-width="2" stroke-linecap="round" stroke-linejoin="round"/>
</svg>
